HIERARCHY
ROOT ui
{
	 OFFSET 0 0 0
	 CHANNELS 3 XPosition YPosition Z Position
	 EndSite
	 {
	 OFFSET 0 -1 0
	 }
}
ROOT li
{
	 OFFSET 0 0 0
	 CHANNELS 3 XPosition YPosition Z Position
	 EndSite
	 {
	 OFFSET 0 -1 0
	 }
}
ROOT ul
{
	 OFFSET 0 0 0
	 CHANNELS 3 XPosition YPosition Z Position
	 EndSite
	 {
	 OFFSET 0 -1 0
	 }
}
ROOT ll
{
	 OFFSET 0 0 0
	 CHANNELS 3 XPosition YPosition Z Position
	 EndSite
	 {
	 OFFSET 0 -1 0
	 }
}
ROOT tt
{
	 OFFSET 0 0 0
	 CHANNELS 3 XPosition YPosition Z Position
	 EndSite
	 {
	 OFFSET 0 -1 0
	 }
}
ROOT tb
{
	 OFFSET 0 0 0
	 CHANNELS 3 XPosition YPosition Z Position
	 EndSite
	 {
	 OFFSET 0 -1 0
	 }
}
ROOT td
{
	 OFFSET 0 0 0
	 CHANNELS 3 XPosition YPosition Z Position
	 EndSite
	 {
	 OFFSET 0 -1 0
	 }
}
ROOT v
{
	 OFFSET 0 0 0
	 CHANNELS 3 XPosition YPosition Z Position
	 EndSite
	 {
	 OFFSET 0 -1 0
	 }
}
ROOT bn
{
	 OFFSET 0 0 0
	 CHANNELS 3 XPosition YPosition Z Position
	 EndSite
	 {
	 OFFSET 0 -1 0
	 }
}
MOTION
Frames: 10
Frame Time: 0.002
-0.002296418905258179	0.0012049249410629272	0		0.5282275390625	-2.39492626953125	0		-1.0818092041015626	-0.09279635620117188	0		-0.650117431640625	-2.409453125	0		1.20351513671875	-0.694753662109375	0		2.90799169921875	-9.545649886131286E-4	0		4.59222607421875	0.27209844970703123	0		5.61808349609375	0.11128501892089844	0		-0.3725420837402344	5.9213466796875	0		
0.049771774291992185	0.002125570058822632	0		0.4926554565429688	-2.38186767578125	0		-1.0827972412109375	-0.09270326995849609	0		-0.6607428588867188	-2.39937158203125	0		1.2414385986328125	-0.688032470703125	0		2.916003173828125	-0.0043584461212158206	0		4.5913623046875	0.2702564697265625	0		5.6161181640625	0.1370191650390625	0		-0.2381606903076172	5.94117724609375	0		
0.04881752777099609	0.001844385027885437	0		0.5496627197265626	-2.399206787109375	0		-1.0896888427734375	-0.08652001953125	0		-0.6536422119140625	-2.4095576171875	0		1.2313050537109376	-0.6855661010742188	0		2.933106689453125	-0.001860929012298584	0		4.59640234375	0.2623906555175781	0		5.62946435546875	0.10176075744628907	0		-0.3704884033203125	5.92105419921875	0		
-0.005145649909973144	4.146910011768341E-4	0		0.5131505737304688	-2.38807958984375	0		-1.0947174072265624	-0.09036756134033203	0		-0.6312598876953125	-2.404985595703125	0		1.2271043701171875	-0.68915673828125	0		2.90921728515625	3.306649923324585E-4	0		4.59554541015625	0.2606977844238281	0		5.61176416015625	0.11801525115966797	0		-0.3705243835449219	5.92393310546875	0		
-0.006060679912567138	1.7632000148296357E-4	0		0.5453156127929687	-2.40201708984375	0		-1.089740478515625	-0.09537983703613281	0		-0.669864990234375	-2.40344287109375	0		1.190925537109375	-0.693195068359375	0		2.90910888671875	-0.012783779144287109	0		4.59957763671875	0.25101988220214844	0		5.615240234375	0.09732462310791015	0		-0.36873678588867187	5.92078662109375	0		
-0.006947635173797607	-4.8551999032497404E-5	0		0.5057880249023438	-2.400771484375	0		-1.086605224609375	-0.09237196350097657	0		-0.6456309204101562	-2.416908935546875	0		1.248692138671875	-0.7037152709960938	0		2.91946240234375	0.0010056350231170655	0		4.58597412109375	0.26273684692382815	0		5.61972802734375	0.11832816314697266	0		-0.21950384521484376	5.949232421875	0		
-0.0017023710012435912	0.005639723777770996	0		0.5494520263671875	-2.3938623046875	0		-1.083416259765625	-0.08837619781494141	0		-0.6538805541992188	-2.403843017578125	0		1.241777099609375	-0.6971460571289062	0		2.914526123046875	-0.004880689144134522	0		4.59796923828125	0.24814593505859375	0		5.62327294921875	0.10153191375732422	0		-0.2339957733154297	5.940326171875	0		
-0.00556523609161377	0.002491978883743286	0		0.5331213989257813	-2.391935546875	0		-1.0942154541015625	-0.08615691375732422	0		-0.637268798828125	-2.40519482421875	0		1.23185400390625	-0.6944804077148438	0		2.880648193359375	-0.009195301055908203	0		4.59234765625	0.2549687652587891	0		5.61972705078125	0.08699496459960937	0		-0.24762229919433593	5.92941845703125	0		
0.04059271240234375	-0.002495068073272705	0		0.539667724609375	-2.403367431640625	0		-1.0990684814453124	-0.09004676818847657	0		-0.6755137329101563	-2.40361669921875	0		1.2278743896484374	-0.698870849609375	0		2.905772705078125	-0.016423444747924804	0		4.59163330078125	0.253827880859375	0		5.60463330078125	0.04895842742919922	0		-0.38049630737304685	5.9105576171875	0		
-0.03509456253051758	-3.824839890003204E-4	0		0.48863470458984376	-2.39577978515625	0		-1.0938876953125	-0.09511997222900391	0		-0.633923095703125	-2.418406005859375	0		1.2329249267578124	-0.705375732421875	0		2.909139892578125	-0.012206892013549804	0		4.58584521484375	0.24588870239257812	0		5.6122119140625	0.08462122344970703	0		-0.38011459350585936	5.91045361328125	0		
